<?xml version="1.0" standalone="no"?>
<!DOCTYPE svg PUBLIC "-//W3C//DTD SVG 20010904//EN"
 "http://www.w3.org/TR/2001/REC-SVG-20010904/DTD/svg10.dtd">
<svg version="1.0" xmlns="http://www.w3.org/2000/svg"
 width="344.000000pt" height="344.000000pt" viewBox="0 0 344.000000 344.000000"
 preserveAspectRatio="xMidYMid meet">
<metadata>
Created by potrace 1.14, written by Peter Selinger 2001-2017
</metadata>
<g transform="translate(0.000000,344.000000) scale(0.100000,-0.100000)"
fill="#000000" stroke="none">
<path d="M3 2441 l2 -276 275 0 275 0 1 272 c1 196 -1 273 -10 276 -6 3 -131
4 -278 4 l-266 0 1 -276z"/>
<path d="M724 2081 l1 -636 275 0 275 0 1 632 c1 463 -1 633 -10 636 -6 2
-131 4 -277 4 l-266 0 1 -636z"/>
<path d="M1444 2442 l1 -277 276 -1 277 -1 0 277 0 277 -278 1 -277 0 1 -276z"/>
<path d="M2166 2711 c-2 -3 -3 -289 -2 -636 l1 -630 275 0 275 0 1 636 2 636
-274 0 c-151 0 -276 -3 -278 -6z"/>
<path d="M2886 2711 c-2 -3 -3 -127 -2 -276 l1 -270 275 0 275 0 0 275 0 275
-273 1 c-149 1 -274 -1 -276 -5z"/>
<path d="M4 1361 l1 -636 275 0 275 0 1 625 c1 344 -1 630 -3 636 -3 9 -81 12
-278 11 l-273 0 2 -636z"/>
<path d="M1444 1361 l1 -636 275 0 275 0 0 635 0 635 -276 1 -276 1 1 -636z"/>
<path d="M726 1272 c-6 -9 -5 -524 1 -539 3 -8 79 -11 276 -10 l272 2 1 272
c2 197 -1 273 -10 276 -19 7 -536 6 -540 -1z"/>
<path d="M2162 1011 c1 -146 3 -271 5 -278 3 -8 78 -11 276 -10 l272 2 0 275
0 275 -276 1 -277 1 0 -266z"/>
<path d="M2884 1001 l1 -276 276 -1 276 -2 0 266 c0 147 -1 272 -4 278 -3 8
-79 11 -278 11 l-273 -1 2 -275z"/>
</g>
</svg>
